<svg xmlns="http://www.w3.org/2000/svg" width="718" height="1024" viewBox="0 0 718 1024">
<path d="M 384 811 L 383 812 L 383 814 L 382 815 L 382 819 L 383 820 L 383 822 L 384 823 L 386 823 L 387 824 L 389 824 L 390 825 L 393 825 L 394 826 L 395 826 L 396 827 L 398 827 L 399 828 L 400 828 L 401 829 L 403 829 L 404 830 L 405 830 L 406 831 L 407 831 L 408 832 L 409 832 L 410 833 L 411 833 L 411 830 L 408 827 L 407 827 L 404 824 L 403 824 L 401 822 L 400 822 L 398 820 L 397 820 L 394 817 L 393 817 L 392 816 L 391 816 L 389 814 L 388 814 L 386 812 L 385 812 Z" fill="rgb(4,251,10)" stroke="none"/>
<path d="M 372 771 L 371 772 L 370 772 L 368 774 L 367 774 L 367 775 L 366 776 L 365 776 L 363 778 L 362 778 L 362 779 L 359 782 L 358 782 L 354 786 L 353 786 L 351 788 L 350 788 L 348 790 L 348 791 L 345 794 L 345 832 L 346 833 L 346 841 L 347 842 L 347 845 L 348 846 L 348 854 L 349 855 L 349 861 L 350 862 L 350 865 L 351 866 L 351 871 L 352 872 L 352 878 L 353 879 L 353 882 L 354 883 L 354 885 L 355 886 L 355 889 L 357 891 L 357 892 L 359 892 L 360 893 L 362 891 L 362 890 L 363 889 L 363 888 L 364 887 L 364 884 L 365 883 L 365 880 L 366 879 L 366 874 L 367 873 L 367 868 L 368 867 L 368 862 L 369 861 L 369 855 L 370 854 L 370 848 L 371 847 L 371 841 L 372 840 L 372 834 L 373 833 L 373 771 Z" fill="rgb(3,253,8)" stroke="none"/>
<path d="M 384 670 L 384 702 L 385 702 L 390 707 L 390 713 L 384 719 L 384 747 L 386 745 L 387 745 L 395 737 L 395 736 L 400 731 L 400 730 L 403 727 L 403 726 L 405 724 L 405 723 L 407 721 L 407 720 L 408 719 L 408 718 L 409 717 L 409 716 L 410 715 L 410 713 L 411 712 L 411 709 L 412 708 L 412 700 L 411 699 L 411 697 L 410 696 L 410 694 L 408 692 L 408 691 L 407 690 L 407 689 L 404 686 L 404 685 L 395 676 L 394 676 L 390 672 L 389 672 L 387 670 Z" fill="rgb(0,199,20)" stroke="none"/>
<path d="M 368 606 L 367 607 L 366 607 L 365 608 L 357 608 L 356 609 L 350 609 L 349 610 L 346 610 L 346 611 L 345 612 L 345 753 L 346 754 L 346 761 L 345 762 L 345 765 L 342 768 L 342 769 L 341 770 L 341 771 L 338 774 L 338 776 L 337 777 L 337 778 L 335 780 L 335 782 L 334 783 L 334 784 L 333 785 L 333 786 L 332 787 L 332 790 L 333 790 L 337 786 L 337 785 L 342 780 L 343 780 L 350 773 L 351 773 L 355 769 L 356 769 L 359 766 L 360 766 L 362 764 L 363 764 L 366 761 L 367 761 L 370 758 L 371 758 L 373 756 L 373 606 Z" fill="rgb(2,188,17)" stroke="none"/>
<path d="M 346 496 L 345 497 L 345 548 L 346 549 L 348 549 L 349 548 L 354 548 L 355 547 L 361 547 L 362 546 L 367 546 L 368 545 L 371 545 L 372 544 L 374 544 L 374 512 L 373 511 L 373 510 L 372 510 L 370 508 L 368 508 L 366 506 L 365 506 L 364 505 L 363 505 L 362 504 L 361 504 L 360 503 L 359 503 L 357 501 L 356 501 L 355 500 L 354 500 L 352 498 L 351 498 L 349 496 Z" fill="rgb(3,135,15)" stroke="none"/>
<path d="M 354 272 L 352 274 L 350 274 L 346 278 L 346 279 L 344 281 L 344 282 L 342 284 L 342 289 L 341 290 L 341 300 L 342 301 L 342 332 L 343 333 L 343 349 L 344 350 L 344 357 L 345 358 L 345 391 L 346 392 L 346 431 L 347 432 L 347 433 L 350 436 L 351 436 L 353 438 L 354 438 L 355 439 L 356 439 L 357 440 L 358 440 L 359 441 L 361 441 L 362 442 L 363 442 L 364 443 L 366 443 L 368 445 L 370 445 L 371 446 L 373 446 L 373 405 L 374 404 L 374 379 L 375 378 L 375 353 L 376 352 L 376 320 L 377 319 L 377 284 L 376 283 L 376 281 L 375 280 L 375 279 L 370 274 L 369 274 L 368 273 L 367 273 L 366 272 Z" fill="rgb(10,165,0)" stroke="none"/>
<path d="M 441 183 L 440 184 L 440 185 L 439 186 L 439 187 L 436 190 L 436 191 L 433 194 L 432 194 L 432 195 L 431 196 L 430 196 L 426 200 L 425 200 L 423 202 L 422 202 L 420 204 L 417 204 L 415 206 L 411 206 L 409 208 L 404 208 L 403 209 L 388 209 L 387 208 L 388 207 L 389 207 L 390 206 L 391 206 L 392 205 L 393 205 L 396 202 L 397 202 L 399 200 L 399 199 L 402 196 L 402 195 L 403 194 L 403 192 L 402 193 L 401 193 L 398 196 L 397 196 L 395 198 L 394 198 L 392 200 L 390 200 L 390 201 L 389 202 L 388 202 L 386 204 L 385 204 L 383 206 L 379 206 L 377 208 L 372 208 L 371 209 L 370 209 L 369 210 L 353 210 L 352 211 L 351 211 L 350 212 L 346 212 L 344 214 L 341 214 L 339 216 L 337 216 L 335 218 L 332 218 L 330 220 L 325 220 L 323 222 L 296 222 L 294 224 L 294 227 L 293 228 L 293 232 L 292 233 L 292 237 L 293 238 L 298 233 L 299 234 L 299 235 L 300 236 L 300 237 L 301 238 L 303 238 L 304 239 L 314 239 L 315 238 L 327 238 L 328 237 L 329 237 L 330 238 L 328 240 L 324 240 L 323 241 L 318 241 L 317 242 L 303 242 L 302 243 L 299 243 L 298 244 L 296 244 L 295 245 L 294 245 L 293 246 L 292 246 L 291 247 L 290 247 L 289 248 L 288 248 L 287 249 L 284 249 L 283 250 L 281 250 L 280 251 L 264 251 L 263 250 L 260 250 L 259 249 L 258 249 L 257 248 L 256 248 L 253 245 L 252 245 L 251 244 L 251 245 L 255 249 L 256 249 L 257 250 L 259 250 L 260 251 L 261 251 L 262 252 L 265 252 L 266 253 L 279 253 L 280 252 L 284 252 L 285 251 L 287 251 L 288 250 L 289 250 L 290 249 L 292 249 L 293 248 L 294 248 L 295 247 L 297 247 L 298 246 L 300 246 L 301 245 L 304 245 L 305 244 L 310 244 L 311 243 L 315 243 L 316 244 L 320 244 L 321 245 L 320 246 L 318 246 L 317 247 L 315 247 L 314 248 L 313 248 L 312 249 L 311 249 L 310 250 L 307 250 L 306 251 L 305 251 L 303 249 L 303 247 L 302 247 L 302 251 L 303 252 L 303 253 L 304 254 L 304 255 L 306 257 L 306 258 L 307 259 L 309 259 L 310 258 L 311 258 L 312 257 L 313 257 L 314 256 L 316 256 L 317 255 L 325 255 L 326 254 L 327 255 L 328 254 L 329 255 L 337 255 L 338 256 L 341 256 L 342 257 L 344 257 L 345 258 L 349 258 L 350 259 L 355 259 L 356 260 L 371 260 L 372 259 L 375 259 L 376 258 L 377 258 L 378 257 L 379 258 L 380 258 L 386 264 L 386 265 L 388 267 L 388 268 L 389 269 L 389 271 L 390 272 L 390 274 L 391 275 L 391 285 L 390 286 L 390 289 L 389 290 L 389 291 L 388 292 L 388 293 L 387 294 L 387 295 L 386 296 L 386 298 L 384 300 L 384 321 L 385 322 L 385 333 L 384 334 L 384 343 L 385 344 L 386 343 L 387 343 L 389 341 L 390 341 L 401 330 L 401 329 L 404 326 L 404 325 L 407 322 L 407 321 L 408 320 L 408 319 L 410 317 L 410 316 L 411 315 L 411 314 L 412 313 L 412 312 L 413 311 L 413 310 L 414 309 L 414 307 L 415 306 L 415 305 L 416 304 L 416 302 L 417 301 L 417 299 L 418 298 L 418 296 L 419 295 L 419 292 L 420 291 L 421 291 L 422 292 L 422 293 L 423 294 L 423 295 L 424 296 L 424 297 L 425 298 L 425 318 L 425 317 L 426 316 L 426 314 L 427 313 L 427 312 L 428 311 L 428 309 L 429 308 L 429 305 L 430 304 L 430 300 L 431 299 L 431 292 L 432 291 L 432 283 L 431 282 L 431 274 L 430 273 L 430 269 L 429 268 L 429 265 L 428 264 L 428 263 L 427 262 L 427 261 L 426 260 L 426 258 L 425 257 L 425 256 L 423 254 L 423 253 L 421 251 L 421 250 L 420 249 L 421 248 L 422 248 L 423 249 L 425 249 L 426 250 L 427 250 L 428 251 L 429 251 L 431 253 L 432 253 L 440 261 L 440 262 L 442 264 L 442 265 L 443 266 L 443 263 L 442 262 L 442 260 L 441 259 L 441 257 L 440 256 L 440 254 L 439 253 L 439 252 L 438 251 L 438 250 L 437 249 L 437 248 L 435 246 L 435 245 L 433 243 L 433 242 L 422 231 L 421 231 L 419 229 L 418 229 L 417 228 L 419 226 L 424 226 L 425 225 L 427 225 L 428 224 L 430 224 L 431 223 L 432 223 L 438 217 L 438 216 L 439 215 L 439 214 L 440 213 L 440 212 L 438 212 L 436 214 L 435 214 L 433 216 L 430 216 L 429 217 L 428 217 L 427 218 L 423 218 L 422 219 L 409 219 L 408 218 L 408 217 L 409 216 L 411 216 L 412 215 L 413 215 L 414 214 L 415 214 L 416 213 L 417 213 L 418 212 L 419 212 L 420 211 L 421 211 L 423 209 L 424 209 L 427 206 L 428 206 L 432 202 L 432 201 L 435 198 L 435 197 L 437 195 L 437 194 L 438 193 L 438 192 L 439 191 L 439 189 L 440 188 L 440 187 L 441 186 Z" fill="rgb(15,192,2)" stroke="none"/>
<path d="M 666 170 L 666 171 L 663 174 L 663 175 L 662 176 L 662 177 L 659 180 L 659 181 L 656 184 L 656 185 L 655 186 L 655 187 L 652 190 L 652 191 L 645 198 L 645 199 L 644 200 L 643 200 L 641 202 L 641 203 L 636 208 L 635 208 L 635 209 L 632 212 L 631 212 L 631 213 L 630 214 L 629 214 L 619 224 L 618 224 L 618 225 L 617 226 L 616 226 L 612 230 L 611 230 L 611 231 L 610 232 L 609 232 L 607 234 L 606 234 L 602 238 L 601 238 L 599 240 L 598 240 L 596 242 L 595 242 L 593 244 L 592 244 L 590 246 L 589 246 L 587 248 L 586 248 L 584 250 L 582 250 L 582 251 L 581 252 L 579 252 L 579 253 L 578 254 L 575 254 L 575 255 L 574 256 L 572 256 L 571 257 L 570 257 L 569 258 L 567 258 L 565 260 L 563 260 L 561 262 L 559 262 L 557 264 L 555 264 L 553 266 L 550 266 L 548 268 L 545 268 L 543 270 L 539 270 L 537 272 L 534 272 L 533 273 L 532 273 L 531 274 L 526 274 L 524 276 L 520 276 L 518 278 L 512 278 L 510 280 L 506 280 L 504 282 L 499 282 L 498 283 L 497 283 L 496 284 L 494 284 L 493 285 L 492 285 L 491 286 L 488 286 L 486 288 L 483 288 L 481 290 L 479 290 L 477 292 L 475 292 L 473 294 L 471 294 L 469 296 L 467 296 L 465 298 L 464 298 L 464 299 L 463 300 L 461 300 L 461 301 L 460 302 L 459 302 L 457 304 L 456 304 L 454 306 L 453 306 L 449 310 L 448 310 L 448 311 L 447 312 L 446 312 L 444 314 L 444 315 L 437 322 L 437 323 L 436 324 L 436 325 L 433 328 L 433 329 L 431 331 L 431 332 L 430 333 L 430 336 L 434 340 L 434 341 L 438 345 L 438 346 L 441 349 L 441 350 L 443 352 L 443 353 L 445 355 L 445 356 L 447 358 L 447 359 L 448 360 L 448 361 L 449 362 L 449 363 L 450 364 L 450 366 L 451 367 L 451 368 L 452 369 L 452 370 L 453 371 L 453 374 L 454 375 L 454 378 L 455 379 L 455 381 L 456 382 L 456 385 L 457 386 L 457 409 L 456 410 L 456 411 L 455 412 L 455 415 L 454 416 L 454 417 L 453 418 L 453 419 L 451 421 L 451 422 L 450 423 L 450 424 L 448 426 L 448 427 L 447 428 L 447 430 L 441 436 L 441 437 L 440 438 L 439 438 L 439 439 L 429 449 L 428 449 L 428 450 L 429 450 L 430 449 L 438 449 L 439 450 L 448 450 L 449 451 L 452 451 L 453 452 L 456 452 L 457 453 L 458 453 L 459 454 L 461 454 L 462 455 L 463 455 L 464 456 L 465 456 L 467 458 L 468 458 L 469 459 L 470 459 L 471 460 L 472 460 L 474 462 L 475 462 L 478 465 L 479 465 L 480 466 L 481 466 L 483 468 L 484 468 L 485 469 L 486 469 L 487 470 L 488 470 L 489 471 L 490 471 L 491 472 L 493 472 L 494 473 L 496 473 L 497 474 L 500 474 L 501 475 L 506 475 L 507 476 L 522 476 L 523 475 L 527 475 L 528 474 L 531 474 L 532 473 L 534 473 L 535 472 L 537 472 L 538 471 L 539 471 L 540 470 L 541 470 L 543 468 L 544 468 L 546 466 L 547 466 L 551 462 L 551 461 L 554 458 L 554 457 L 556 455 L 556 454 L 557 453 L 557 452 L 558 451 L 558 449 L 559 448 L 559 446 L 560 445 L 560 444 L 529 444 L 528 443 L 524 443 L 523 442 L 516 442 L 515 441 L 514 441 L 513 440 L 509 440 L 508 439 L 507 439 L 506 438 L 501 438 L 500 437 L 499 437 L 498 436 L 495 436 L 493 434 L 490 434 L 488 432 L 486 432 L 485 431 L 484 431 L 483 430 L 481 430 L 480 429 L 479 429 L 478 428 L 477 428 L 476 427 L 475 427 L 472 424 L 471 424 L 469 422 L 468 422 L 467 421 L 466 421 L 465 420 L 466 419 L 469 419 L 470 420 L 474 420 L 475 421 L 480 421 L 481 422 L 487 422 L 488 423 L 493 423 L 494 424 L 503 424 L 504 425 L 516 425 L 517 426 L 541 426 L 542 425 L 553 425 L 554 424 L 559 424 L 560 423 L 564 423 L 565 422 L 568 422 L 569 421 L 572 421 L 573 420 L 575 420 L 576 419 L 577 419 L 578 418 L 580 418 L 581 417 L 582 417 L 583 416 L 584 416 L 585 415 L 586 415 L 587 414 L 588 414 L 590 412 L 591 412 L 592 411 L 593 411 L 595 409 L 596 409 L 599 406 L 600 406 L 605 401 L 606 401 L 608 399 L 608 398 L 613 393 L 613 392 L 616 389 L 616 388 L 618 386 L 618 385 L 619 384 L 619 383 L 621 381 L 621 380 L 622 379 L 622 378 L 623 377 L 623 375 L 624 374 L 624 373 L 625 372 L 625 370 L 626 369 L 626 367 L 627 366 L 627 364 L 625 364 L 623 366 L 619 366 L 618 367 L 617 367 L 616 368 L 613 368 L 611 370 L 608 370 L 607 371 L 606 371 L 605 372 L 603 372 L 602 373 L 601 373 L 600 374 L 597 374 L 596 375 L 594 375 L 593 376 L 589 376 L 588 377 L 587 377 L 586 378 L 582 378 L 581 379 L 580 379 L 579 380 L 574 380 L 573 381 L 572 381 L 571 382 L 563 382 L 562 383 L 561 383 L 560 384 L 554 384 L 553 385 L 550 385 L 549 386 L 538 386 L 537 387 L 534 387 L 533 388 L 504 388 L 503 387 L 493 387 L 491 385 L 492 384 L 496 384 L 497 383 L 501 383 L 502 382 L 506 382 L 507 381 L 511 381 L 512 380 L 515 380 L 516 379 L 519 379 L 520 378 L 524 378 L 525 377 L 528 377 L 529 376 L 532 376 L 533 375 L 535 375 L 536 374 L 539 374 L 540 373 L 542 373 L 543 372 L 546 372 L 547 371 L 549 371 L 550 370 L 552 370 L 553 369 L 556 369 L 557 368 L 559 368 L 560 367 L 562 367 L 563 366 L 565 366 L 566 365 L 568 365 L 569 364 L 571 364 L 572 363 L 574 363 L 575 362 L 577 362 L 578 361 L 579 361 L 580 360 L 582 360 L 583 359 L 584 359 L 585 358 L 587 358 L 588 357 L 589 357 L 590 356 L 591 356 L 592 355 L 594 355 L 595 354 L 596 354 L 597 353 L 598 353 L 600 351 L 601 351 L 602 350 L 603 350 L 604 349 L 605 349 L 606 348 L 607 348 L 609 346 L 610 346 L 611 345 L 612 345 L 615 342 L 616 342 L 618 340 L 619 340 L 622 337 L 623 337 L 627 333 L 628 333 L 641 320 L 641 319 L 644 316 L 644 315 L 646 313 L 646 312 L 648 310 L 648 309 L 650 307 L 650 306 L 651 305 L 651 304 L 652 303 L 652 302 L 653 301 L 653 299 L 654 298 L 654 297 L 655 296 L 655 294 L 656 293 L 656 291 L 657 290 L 657 286 L 658 285 L 658 280 L 659 279 L 659 266 L 658 265 L 657 266 L 656 266 L 656 267 L 653 270 L 652 270 L 652 271 L 651 272 L 650 272 L 646 276 L 645 276 L 645 277 L 644 278 L 642 278 L 642 279 L 641 280 L 640 280 L 636 284 L 635 284 L 635 285 L 634 286 L 633 286 L 631 288 L 630 288 L 628 290 L 627 290 L 626 291 L 625 291 L 622 294 L 621 294 L 619 296 L 618 296 L 616 298 L 615 298 L 613 300 L 612 300 L 610 302 L 609 302 L 607 304 L 606 304 L 604 306 L 603 306 L 602 307 L 601 307 L 598 310 L 596 310 L 594 312 L 592 312 L 590 314 L 589 314 L 588 315 L 587 315 L 586 316 L 585 316 L 584 317 L 583 317 L 582 318 L 580 318 L 578 320 L 576 320 L 576 321 L 575 322 L 572 322 L 570 324 L 567 324 L 565 326 L 562 326 L 560 328 L 557 328 L 555 330 L 553 330 L 552 331 L 551 331 L 550 332 L 546 332 L 545 333 L 542 333 L 541 334 L 539 334 L 538 335 L 534 335 L 533 336 L 529 336 L 528 337 L 525 337 L 524 338 L 521 338 L 520 339 L 517 339 L 516 340 L 513 340 L 512 341 L 510 341 L 509 340 L 510 339 L 511 339 L 512 338 L 514 338 L 515 337 L 517 337 L 518 336 L 519 336 L 520 335 L 522 335 L 523 334 L 525 334 L 526 333 L 527 333 L 528 332 L 530 332 L 531 331 L 532 331 L 533 330 L 534 330 L 535 329 L 536 329 L 537 328 L 538 328 L 539 327 L 540 327 L 541 326 L 542 326 L 543 325 L 544 325 L 545 324 L 546 324 L 547 323 L 548 323 L 549 322 L 550 322 L 551 321 L 552 321 L 553 320 L 554 320 L 555 319 L 556 319 L 558 317 L 559 317 L 560 316 L 561 316 L 562 315 L 563 315 L 565 313 L 566 313 L 568 311 L 569 311 L 570 310 L 571 310 L 573 308 L 574 308 L 576 306 L 577 306 L 579 304 L 580 304 L 582 302 L 583 302 L 585 300 L 586 300 L 588 298 L 589 298 L 592 295 L 593 295 L 596 292 L 597 292 L 600 289 L 601 289 L 605 285 L 606 285 L 611 280 L 612 280 L 620 272 L 621 272 L 635 258 L 635 257 L 641 251 L 641 250 L 645 246 L 645 245 L 648 242 L 648 241 L 650 239 L 650 238 L 653 235 L 653 234 L 654 233 L 654 232 L 656 230 L 656 229 L 657 228 L 657 227 L 658 226 L 658 225 L 659 224 L 659 223 L 660 222 L 660 221 L 661 220 L 661 219 L 662 218 L 662 216 L 663 215 L 663 213 L 664 212 L 664 210 L 665 209 L 665 206 L 666 205 L 666 202 L 667 201 L 667 196 L 668 195 L 668 171 L 667 170 Z" fill="rgb(10,107,4)" stroke="none"/>
<path d="M 53 169 L 52 170 L 52 198 L 53 199 L 53 204 L 54 205 L 54 207 L 55 208 L 55 211 L 56 212 L 56 215 L 57 216 L 57 217 L 58 218 L 58 219 L 59 220 L 59 221 L 60 222 L 60 223 L 61 224 L 61 225 L 62 226 L 62 227 L 63 228 L 63 229 L 64 230 L 64 231 L 65 232 L 65 233 L 67 235 L 67 236 L 69 238 L 69 239 L 71 241 L 71 242 L 75 246 L 75 247 L 80 252 L 80 253 L 87 260 L 87 261 L 98 272 L 99 272 L 108 281 L 109 281 L 114 286 L 115 286 L 119 290 L 120 290 L 124 294 L 125 294 L 127 296 L 128 296 L 131 299 L 132 299 L 134 301 L 135 301 L 137 303 L 138 303 L 140 305 L 141 305 L 143 307 L 144 307 L 145 308 L 146 308 L 148 310 L 149 310 L 150 311 L 151 311 L 153 313 L 154 313 L 155 314 L 156 314 L 158 316 L 159 316 L 160 317 L 161 317 L 162 318 L 163 318 L 165 320 L 166 320 L 167 321 L 168 321 L 169 322 L 170 322 L 171 323 L 172 323 L 173 324 L 174 324 L 175 325 L 176 325 L 177 326 L 178 326 L 179 327 L 180 327 L 181 328 L 182 328 L 183 329 L 184 329 L 185 330 L 186 330 L 187 331 L 188 331 L 189 332 L 191 332 L 192 333 L 193 333 L 194 334 L 196 334 L 197 335 L 198 335 L 199 336 L 200 336 L 201 337 L 203 337 L 204 338 L 205 338 L 206 339 L 205 340 L 202 340 L 201 339 L 199 339 L 198 338 L 194 338 L 193 337 L 191 337 L 190 336 L 188 336 L 187 335 L 185 335 L 184 334 L 181 334 L 180 333 L 178 333 L 177 332 L 173 332 L 172 331 L 170 331 L 169 330 L 167 330 L 166 329 L 165 329 L 164 328 L 162 328 L 160 326 L 156 326 L 154 324 L 152 324 L 151 323 L 150 323 L 149 322 L 147 322 L 145 320 L 143 320 L 141 318 L 139 318 L 138 317 L 137 317 L 136 316 L 134 316 L 132 314 L 131 314 L 130 313 L 129 313 L 128 312 L 127 312 L 125 310 L 124 310 L 123 309 L 122 309 L 121 308 L 120 308 L 118 306 L 117 306 L 116 305 L 115 305 L 114 304 L 113 304 L 111 302 L 110 302 L 108 300 L 107 300 L 105 298 L 104 298 L 102 296 L 101 296 L 99 294 L 98 294 L 96 292 L 95 292 L 91 288 L 90 288 L 88 286 L 87 286 L 83 282 L 82 282 L 78 278 L 77 278 L 76 277 L 76 276 L 75 276 L 71 272 L 70 272 L 69 271 L 69 270 L 68 270 L 63 265 L 62 265 L 61 266 L 61 281 L 62 282 L 62 286 L 63 287 L 63 291 L 64 292 L 64 294 L 65 295 L 65 297 L 66 298 L 66 299 L 67 300 L 67 302 L 68 303 L 68 304 L 69 305 L 69 306 L 70 307 L 70 308 L 72 310 L 72 311 L 73 312 L 73 313 L 76 316 L 76 317 L 80 321 L 80 322 L 90 332 L 91 332 L 97 338 L 98 338 L 100 340 L 101 340 L 104 343 L 105 343 L 107 345 L 108 345 L 109 346 L 110 346 L 112 348 L 113 348 L 114 349 L 115 349 L 116 350 L 117 350 L 118 351 L 119 351 L 120 352 L 121 352 L 122 353 L 123 353 L 124 354 L 125 354 L 126 355 L 127 355 L 128 356 L 130 356 L 131 357 L 132 357 L 133 358 L 134 358 L 135 359 L 137 359 L 138 360 L 139 360 L 140 361 L 142 361 L 143 362 L 145 362 L 146 363 L 147 363 L 148 364 L 151 364 L 152 365 L 153 365 L 154 366 L 157 366 L 158 367 L 159 367 L 160 368 L 163 368 L 164 369 L 166 369 L 167 370 L 170 370 L 171 371 L 173 371 L 174 372 L 177 372 L 178 373 L 180 373 L 181 374 L 183 374 L 184 375 L 187 375 L 188 376 L 191 376 L 192 377 L 195 377 L 196 378 L 199 378 L 200 379 L 204 379 L 205 380 L 208 380 L 209 381 L 212 381 L 213 382 L 217 382 L 218 383 L 221 383 L 222 384 L 226 384 L 227 385 L 228 385 L 229 386 L 228 387 L 213 387 L 212 388 L 190 388 L 189 387 L 185 387 L 184 386 L 172 386 L 171 385 L 169 385 L 168 384 L 162 384 L 161 383 L 159 383 L 158 382 L 151 382 L 150 381 L 149 381 L 148 380 L 141 380 L 140 379 L 139 379 L 138 378 L 133 378 L 132 377 L 131 377 L 130 376 L 127 376 L 126 375 L 125 375 L 124 374 L 119 374 L 118 373 L 117 373 L 116 372 L 114 372 L 113 371 L 112 371 L 111 370 L 108 370 L 106 368 L 103 368 L 102 367 L 101 367 L 100 366 L 97 366 L 96 365 L 94 365 L 94 366 L 93 367 L 94 368 L 94 371 L 95 372 L 95 374 L 96 375 L 96 376 L 97 377 L 97 378 L 98 379 L 98 380 L 99 381 L 99 382 L 101 384 L 101 385 L 102 386 L 102 387 L 104 389 L 104 390 L 108 394 L 108 395 L 119 406 L 120 406 L 123 409 L 124 409 L 125 410 L 126 410 L 128 412 L 129 412 L 130 413 L 131 413 L 133 415 L 134 415 L 135 416 L 136 416 L 137 417 L 139 417 L 140 418 L 141 418 L 142 419 L 144 419 L 145 420 L 147 420 L 148 421 L 150 421 L 151 422 L 154 422 L 155 423 L 159 423 L 160 424 L 166 424 L 167 425 L 176 425 L 177 426 L 201 426 L 202 425 L 213 425 L 214 424 L 223 424 L 224 423 L 229 423 L 230 422 L 235 422 L 236 421 L 240 421 L 241 420 L 246 420 L 247 419 L 252 419 L 253 420 L 246 427 L 244 427 L 243 428 L 241 428 L 239 430 L 238 430 L 237 431 L 236 431 L 235 432 L 234 432 L 233 433 L 231 433 L 230 434 L 228 434 L 227 435 L 225 435 L 224 436 L 223 436 L 222 437 L 219 437 L 218 438 L 216 438 L 215 439 L 212 439 L 211 440 L 209 440 L 208 441 L 206 441 L 205 442 L 204 441 L 203 442 L 200 442 L 199 443 L 192 443 L 191 444 L 185 444 L 184 445 L 162 445 L 161 446 L 161 449 L 162 450 L 162 452 L 164 454 L 164 455 L 165 456 L 165 457 L 168 460 L 168 461 L 173 466 L 174 466 L 177 469 L 178 469 L 179 470 L 180 470 L 181 471 L 182 471 L 183 472 L 185 472 L 186 473 L 188 473 L 189 474 L 192 474 L 193 475 L 198 475 L 199 476 L 211 476 L 212 475 L 218 475 L 219 474 L 222 474 L 223 473 L 225 473 L 226 472 L 228 472 L 229 471 L 230 471 L 231 470 L 232 470 L 233 469 L 234 469 L 235 468 L 236 468 L 238 466 L 239 466 L 241 464 L 242 464 L 244 462 L 245 462 L 248 459 L 249 459 L 251 457 L 252 457 L 254 455 L 255 455 L 256 454 L 257 454 L 259 452 L 260 452 L 261 451 L 262 451 L 263 450 L 264 450 L 265 449 L 266 449 L 267 448 L 268 448 L 269 447 L 271 447 L 272 446 L 275 446 L 276 445 L 295 445 L 296 446 L 297 446 L 299 448 L 299 449 L 306 456 L 306 457 L 311 462 L 311 463 L 312 463 L 315 466 L 316 466 L 319 469 L 320 469 L 321 470 L 322 470 L 324 472 L 325 472 L 326 473 L 327 473 L 328 474 L 329 474 L 331 476 L 332 476 L 333 477 L 334 477 L 335 478 L 336 478 L 337 479 L 338 479 L 339 480 L 340 480 L 341 481 L 342 481 L 343 482 L 344 482 L 345 483 L 346 483 L 348 485 L 349 485 L 350 486 L 351 486 L 352 487 L 353 487 L 354 488 L 355 488 L 356 489 L 357 489 L 358 490 L 359 490 L 361 492 L 363 492 L 365 494 L 366 494 L 367 495 L 368 495 L 370 497 L 371 497 L 372 498 L 373 498 L 377 502 L 378 502 L 382 506 L 382 507 L 386 511 L 386 512 L 388 514 L 388 515 L 389 516 L 389 517 L 390 518 L 390 519 L 391 520 L 391 522 L 392 523 L 392 526 L 393 527 L 393 530 L 394 531 L 394 543 L 393 544 L 393 545 L 392 546 L 392 547 L 389 550 L 388 550 L 386 552 L 384 552 L 384 553 L 383 554 L 380 554 L 378 556 L 369 556 L 368 557 L 367 557 L 366 558 L 357 558 L 355 560 L 343 560 L 342 561 L 339 561 L 338 562 L 330 562 L 328 564 L 326 564 L 324 566 L 321 566 L 321 567 L 320 568 L 318 568 L 316 570 L 315 570 L 315 571 L 314 572 L 313 572 L 311 574 L 311 575 L 310 576 L 309 576 L 307 578 L 307 579 L 305 581 L 305 582 L 304 583 L 304 584 L 303 585 L 303 587 L 302 588 L 302 589 L 301 590 L 301 593 L 300 594 L 300 599 L 299 600 L 299 603 L 298 604 L 298 611 L 299 612 L 299 617 L 300 618 L 300 624 L 301 625 L 301 627 L 302 628 L 302 630 L 303 631 L 303 632 L 304 633 L 304 634 L 305 635 L 305 636 L 306 637 L 306 638 L 307 639 L 307 640 L 309 642 L 309 643 L 310 644 L 310 645 L 314 649 L 314 650 L 320 656 L 320 657 L 331 668 L 332 668 L 333 669 L 333 621 L 330 618 L 330 617 L 328 615 L 328 612 L 327 611 L 327 606 L 331 602 L 332 602 L 333 601 L 336 601 L 337 600 L 343 600 L 344 599 L 349 599 L 350 598 L 356 598 L 357 597 L 362 597 L 363 596 L 368 596 L 369 595 L 373 595 L 374 594 L 378 594 L 379 593 L 382 593 L 383 592 L 385 592 L 386 591 L 389 591 L 390 590 L 392 590 L 393 589 L 394 589 L 395 588 L 397 588 L 398 587 L 399 587 L 400 586 L 401 586 L 402 585 L 403 585 L 404 584 L 405 584 L 406 583 L 407 583 L 408 582 L 409 582 L 411 580 L 412 580 L 415 577 L 416 577 L 424 569 L 424 568 L 426 566 L 426 565 L 427 564 L 427 563 L 428 562 L 428 561 L 429 560 L 429 559 L 430 558 L 430 556 L 431 555 L 431 554 L 432 553 L 432 550 L 433 549 L 433 545 L 434 544 L 434 522 L 433 521 L 433 517 L 432 516 L 432 513 L 431 512 L 431 510 L 430 509 L 430 508 L 429 507 L 429 505 L 428 504 L 428 503 L 426 501 L 426 500 L 425 499 L 425 498 L 423 496 L 423 495 L 417 489 L 417 488 L 416 488 L 413 485 L 413 484 L 412 484 L 411 483 L 411 482 L 410 482 L 404 476 L 403 476 L 397 470 L 396 470 L 392 466 L 391 466 L 389 464 L 388 464 L 386 462 L 385 462 L 384 461 L 383 461 L 382 460 L 381 460 L 380 459 L 379 459 L 378 458 L 377 458 L 376 457 L 375 457 L 374 456 L 372 456 L 371 455 L 370 455 L 369 454 L 366 454 L 364 452 L 362 452 L 361 451 L 360 451 L 359 450 L 357 450 L 355 448 L 353 448 L 351 446 L 350 446 L 349 445 L 348 445 L 347 444 L 346 444 L 344 442 L 343 442 L 341 440 L 340 440 L 338 438 L 337 438 L 335 436 L 334 436 L 332 434 L 331 434 L 324 427 L 324 426 L 321 423 L 321 422 L 319 420 L 319 419 L 317 417 L 317 415 L 316 414 L 316 413 L 315 412 L 315 410 L 314 409 L 314 404 L 313 403 L 313 398 L 314 397 L 314 393 L 315 392 L 315 390 L 316 389 L 316 388 L 317 387 L 317 386 L 320 383 L 320 382 L 323 379 L 324 379 L 326 377 L 327 377 L 328 376 L 329 376 L 330 375 L 331 375 L 332 374 L 333 374 L 334 373 L 336 373 L 337 372 L 337 367 L 336 366 L 336 361 L 335 360 L 335 354 L 334 353 L 334 348 L 333 347 L 333 343 L 332 342 L 332 341 L 331 340 L 325 340 L 323 342 L 320 342 L 318 344 L 315 344 L 313 346 L 312 346 L 310 348 L 308 348 L 308 349 L 307 350 L 305 350 L 305 351 L 304 352 L 302 352 L 291 363 L 291 364 L 289 366 L 289 367 L 288 368 L 288 369 L 287 370 L 287 371 L 286 372 L 286 373 L 285 374 L 285 375 L 284 376 L 284 377 L 283 378 L 283 381 L 282 382 L 282 385 L 281 386 L 281 388 L 280 389 L 280 410 L 281 411 L 281 413 L 282 414 L 282 417 L 283 418 L 283 421 L 284 422 L 284 424 L 285 425 L 285 426 L 286 427 L 286 429 L 287 430 L 287 431 L 288 432 L 288 434 L 290 436 L 289 437 L 288 437 L 287 436 L 285 436 L 283 434 L 282 434 L 271 423 L 271 422 L 269 420 L 269 419 L 268 418 L 268 417 L 267 416 L 267 414 L 266 413 L 266 412 L 265 411 L 265 408 L 264 407 L 264 403 L 263 402 L 263 387 L 264 386 L 264 381 L 265 380 L 265 377 L 266 376 L 266 374 L 267 373 L 267 371 L 268 370 L 268 368 L 269 367 L 269 366 L 270 365 L 270 364 L 271 363 L 271 362 L 272 361 L 272 360 L 273 359 L 273 358 L 274 357 L 274 356 L 276 354 L 276 353 L 278 351 L 278 350 L 280 348 L 280 347 L 284 343 L 284 342 L 289 337 L 289 336 L 290 335 L 289 334 L 289 333 L 288 332 L 288 331 L 287 330 L 287 329 L 286 328 L 286 327 L 284 325 L 284 324 L 283 323 L 283 322 L 279 318 L 279 317 L 268 306 L 267 306 L 263 302 L 262 302 L 260 300 L 259 300 L 257 298 L 256 298 L 254 296 L 252 296 L 250 294 L 248 294 L 246 292 L 245 292 L 244 291 L 243 291 L 242 290 L 240 290 L 238 288 L 235 288 L 233 286 L 229 286 L 227 284 L 224 284 L 223 283 L 222 283 L 221 282 L 218 282 L 217 281 L 216 281 L 215 280 L 211 280 L 210 279 L 209 279 L 208 278 L 203 278 L 202 277 L 201 277 L 200 276 L 196 276 L 194 274 L 191 274 L 190 273 L 189 273 L 188 272 L 184 272 L 183 271 L 182 271 L 181 270 L 178 270 L 177 269 L 176 269 L 175 268 L 173 268 L 171 266 L 169 266 L 168 265 L 167 265 L 166 264 L 164 264 L 162 262 L 159 262 L 157 260 L 155 260 L 153 258 L 152 258 L 151 257 L 150 257 L 149 256 L 148 256 L 147 255 L 146 255 L 145 254 L 143 254 L 141 252 L 140 252 L 138 250 L 137 250 L 135 248 L 134 248 L 132 246 L 131 246 L 129 244 L 128 244 L 126 242 L 125 242 L 123 240 L 122 240 L 120 238 L 119 238 L 117 236 L 116 236 L 112 232 L 111 232 L 106 227 L 105 227 L 102 224 L 101 224 L 100 223 L 100 222 L 99 221 L 98 221 L 76 199 L 76 198 L 69 191 L 69 190 L 65 186 L 65 185 L 62 182 L 62 181 L 59 178 L 59 177 L 57 175 L 57 174 L 55 172 L 55 171 Z" fill="rgb(5,84,1)" stroke="none"/>
</svg>